<mxfile host="app.diagrams.net" agent="Mozilla/5.0 (X11; Linux x86_64) AppleWebKit/537.36 (KHTML, like Gecko) Chrome/114.0.0.0 Safari/537.36" version="24.7.7">
  <diagram name="Halaman-1" id="10phXXoiHyt751GaJMq6">
    <mxGraphModel dx="1052" dy="627" grid="1" gridSize="10" guides="1" tooltips="1" connect="1" arrows="1" fold="1" page="1" pageScale="1" pageWidth="827" pageHeight="1169" math="0" shadow="0">
      <root>
        <mxCell id="0" />
        <mxCell id="1" parent="0" />
        <mxCell id="-1lic2bd7KNMTpwJJDs7-1" value="Mulai" style="ellipse;whiteSpace=wrap;html=1;" vertex="1" parent="1">
          <mxGeometry x="380" y="60" width="96" height="60" as="geometry" />
        </mxCell>
        <mxCell id="-1lic2bd7KNMTpwJJDs7-2" value="Admin" style="rounded=1;whiteSpace=wrap;html=1;" vertex="1" parent="1">
          <mxGeometry x="240" y="160" width="100" height="50" as="geometry" />
        </mxCell>
        <mxCell id="-1lic2bd7KNMTpwJJDs7-3" value="Siswa" style="rounded=1;whiteSpace=wrap;html=1;" vertex="1" parent="1">
          <mxGeometry x="510" y="160" width="100" height="50" as="geometry" />
        </mxCell>
        <mxCell id="-1lic2bd7KNMTpwJJDs7-5" value="" style="endArrow=none;html=1;rounded=0;entryX=0.5;entryY=1;entryDx=0;entryDy=0;" edge="1" parent="1" target="-1lic2bd7KNMTpwJJDs7-1">
          <mxGeometry width="50" height="50" relative="1" as="geometry">
            <mxPoint x="430" y="180" as="sourcePoint" />
            <mxPoint x="440" y="300" as="targetPoint" />
          </mxGeometry>
        </mxCell>
        <mxCell id="-1lic2bd7KNMTpwJJDs7-6" value="" style="endArrow=classic;startArrow=classic;html=1;rounded=0;entryX=0;entryY=0.5;entryDx=0;entryDy=0;" edge="1" parent="1">
          <mxGeometry width="50" height="50" relative="1" as="geometry">
            <mxPoint x="340" y="180" as="sourcePoint" />
            <mxPoint x="510" y="180" as="targetPoint" />
          </mxGeometry>
        </mxCell>
        <mxCell id="-1lic2bd7KNMTpwJJDs7-9" value="Mengisi form log in&amp;nbsp;" style="rounded=0;whiteSpace=wrap;html=1;" vertex="1" parent="1">
          <mxGeometry x="373" y="250" width="110" height="50" as="geometry" />
        </mxCell>
        <mxCell id="-1lic2bd7KNMTpwJJDs7-12" value="" style="endArrow=classic;html=1;rounded=0;exitX=0.5;exitY=1;exitDx=0;exitDy=0;" edge="1" parent="1" source="-1lic2bd7KNMTpwJJDs7-2">
          <mxGeometry width="50" height="50" relative="1" as="geometry">
            <mxPoint x="390" y="350" as="sourcePoint" />
            <mxPoint x="370" y="280" as="targetPoint" />
            <Array as="points">
              <mxPoint x="290" y="280" />
            </Array>
          </mxGeometry>
        </mxCell>
        <mxCell id="-1lic2bd7KNMTpwJJDs7-13" value="" style="endArrow=classic;html=1;rounded=0;exitX=0.5;exitY=1;exitDx=0;exitDy=0;" edge="1" parent="1">
          <mxGeometry width="50" height="50" relative="1" as="geometry">
            <mxPoint x="553" y="210" as="sourcePoint" />
            <mxPoint x="483" y="280" as="targetPoint" />
            <Array as="points">
              <mxPoint x="553" y="280" />
            </Array>
          </mxGeometry>
        </mxCell>
        <mxCell id="-1lic2bd7KNMTpwJJDs7-14" value="Admin mengisi&lt;div&gt;data dan saldo&lt;/div&gt;" style="shape=parallelogram;perimeter=parallelogramPerimeter;whiteSpace=wrap;html=1;fixedSize=1;" vertex="1" parent="1">
          <mxGeometry x="240" y="320" width="120" height="60" as="geometry" />
        </mxCell>
        <mxCell id="-1lic2bd7KNMTpwJJDs7-15" value="" style="endArrow=classic;html=1;rounded=0;exitX=0.5;exitY=1;exitDx=0;exitDy=0;entryX=1;entryY=0.75;entryDx=0;entryDy=0;" edge="1" parent="1" source="-1lic2bd7KNMTpwJJDs7-9" target="-1lic2bd7KNMTpwJJDs7-14">
          <mxGeometry width="50" height="50" relative="1" as="geometry">
            <mxPoint x="470" y="360" as="sourcePoint" />
            <mxPoint x="410" y="440" as="targetPoint" />
            <Array as="points">
              <mxPoint x="428" y="360" />
            </Array>
          </mxGeometry>
        </mxCell>
        <mxCell id="-1lic2bd7KNMTpwJJDs7-16" value="Siswa dapat melihat saldo dan&amp;nbsp;&lt;div&gt;pencarian saja&lt;/div&gt;" style="rounded=1;whiteSpace=wrap;html=1;" vertex="1" parent="1">
          <mxGeometry x="510" y="320" width="120" height="60" as="geometry" />
        </mxCell>
        <mxCell id="-1lic2bd7KNMTpwJJDs7-19" value="" style="endArrow=classic;html=1;rounded=0;entryX=0.025;entryY=0.633;entryDx=0;entryDy=0;entryPerimeter=0;" edge="1" parent="1">
          <mxGeometry width="50" height="50" relative="1" as="geometry">
            <mxPoint x="427" y="360" as="sourcePoint" />
            <mxPoint x="510" y="357.98" as="targetPoint" />
            <Array as="points">
              <mxPoint x="437" y="360" />
            </Array>
          </mxGeometry>
        </mxCell>
        <mxCell id="-1lic2bd7KNMTpwJJDs7-20" value="Selesai" style="ellipse;whiteSpace=wrap;html=1;" vertex="1" parent="1">
          <mxGeometry x="380" y="470" width="96" height="60" as="geometry" />
        </mxCell>
        <mxCell id="-1lic2bd7KNMTpwJJDs7-21" value="" style="endArrow=classic;html=1;rounded=0;entryX=0.5;entryY=0;entryDx=0;entryDy=0;" edge="1" parent="1" target="-1lic2bd7KNMTpwJJDs7-20">
          <mxGeometry width="50" height="50" relative="1" as="geometry">
            <mxPoint x="428" y="360" as="sourcePoint" />
            <mxPoint x="440" y="300" as="targetPoint" />
          </mxGeometry>
        </mxCell>
      </root>
    </mxGraphModel>
  </diagram>
</mxfile>
